<svg width="21" height="20" viewBox="0 0 21 20" fill="none" xmlns="http://www.w3.org/2000/svg">
<path d="M18.3934 3.22583C17.9426 2.75742 17.4074 2.38584 16.8183 2.13232C16.2292 1.87881 15.5977 1.74832 14.9601 1.74832C14.3224 1.74832 13.691 1.87881 13.1019 2.13232C12.5128 2.38584 11.9776 2.75742 11.5268 3.22583L10.5912 4.19749L9.65565 3.22583C8.74507 2.28011 7.51007 1.74881 6.22233 1.74881C4.93458 1.74881 3.69958 2.28011 2.78901 3.22583C1.87844 4.17155 1.36688 5.45421 1.36688 6.79166C1.36688 8.12911 1.87844 9.41178 2.78901 10.3575L3.72457 11.3292L10.5912 18.4608L17.4578 11.3292L18.3934 10.3575C18.8444 9.8893 19.2022 9.33341 19.4463 8.72157C19.6904 8.10973 19.816 7.45394 19.816 6.79166C19.816 6.12938 19.6904 5.47359 19.4463 4.86175C19.2022 4.24992 18.8444 3.69402 18.3934 3.22583V3.22583Z" stroke="#333744" stroke-width="1.6" stroke-linecap="round" stroke-linejoin="round"/>
</svg>
